# xmcd CD database file
#
# Track frame offsets:
#	150
#	16292
#	30461
#	46809
#	65841
#	80623
#	106283
#	115134
#	133453
#	152108
#	167764
#	175643
#	202061
#
# Disc length: 2864 seconds
#
# Revision: 2
# Processed by: cddbd v1.5.2PL0 Copyright (c) Steve Scherf et al.
# Submitted via: CDex 1.70beta3
#
DISCID=af0b2e0d
DTITLE=Killswitch Engage - Alive or Just Breathing
DYEAR=2002
DGENRE=Hardcore
TTITLE0=Numbered Days
TTITLE1=Self Revolution
TTITLE2=Fixation on the Darkness
TTITLE3=My Last Serenade
TTITLE4=Life to Lifeless
TTITLE5=Just Barely Breathing
TTITLE6=To the Sons of Man
TTITLE7=Temple from the Within
TTITLE8=The Element of One
TTITLE9=Vida Infra
TTITLE10=Without a Name
TTITLE11=Rise Inside
TTITLE12=In the Unblind
EXTD=YEAR: 2002
EXTT0=
EXTT1=
EXTT2=
EXTT3=
EXTT4=
EXTT5=
EXTT6=
EXTT7=
EXTT8=
EXTT9=
EXTT10=
EXTT11=
EXTT12=
PLAYORDER=
